ffmpeg started on 2025-05-29 at 16:42:51
Report written to "D:\Convert\FFMetrics\reports\ssim_report-6.txt"
Log level: 32
Command line:
ffmpeg -hide_banner -nostdin -i "G:\\\xc0\xed\xe8\xec\xe5\\\xce\xed\xe3\xee\xe8\xed\xe3\xe8\\!_36_\xce\xf1\xe5\xed\xfc_2024\\JamClub\\\xd2\xfb - \xe3\xee\xf0\xed\xe8\xf7\xed\xe0\xff\\JamClub_Kimi_wa_Meido_sama_12_1080p_HEVC.mkv" -i "G:\\\xc0\xed\xe8\xec\xe5\\\xce\xed\xe3\xee\xe8\xed\xe3\xe8\\!_36_\xce\xf1\xe5\xed\xfc_2024\\JamClub\\\xd2\xfb - \xe3\xee\xf0\xed\xe8\xf7\xed\xe0\xff\\JamClub_Kimi_wa_Meido_sama_12_1080p.mp4" -lavfi "[0:v]settb=AVTB,setpts=PTS-STARTPTS,format=pix_fmts=yuv420p10,fps=24000/1001,scale=1920:1080:flags=bicubic[main];[1:v]settb=AVTB,setpts=PTS-STARTPTS,format=pix_fmts=yuv420p,fps=24000/1001,scale=1920:1080:flags=bicubic[ref];[main][ref]ssim=eof_action=endall:stats_file='D\\:/Convert/FFMetrics/logs/ssim_logfile-6.txt'" -f null -
Input #0, matroska,webm, from 'G:\Аниме\Онгоинги\!_36_Осень_2024\JamClub\Ты - горничная\JamClub_Kimi_wa_Meido_sama_12_1080p_HEVC.mkv':
  Metadata:
    COMPATIBLE_BRANDS: isomiso2avc1mp41
    MAJOR_BRAND     : isom
    MINOR_VERSION   : 512
    ENCODER         : Lavf61.7.100
  Duration: 00:23:22.31, start: -0.001000, bitrate: 1901 kb/s
  Stream #0:0: Video: hevc (Main 10), yuv420p10le(tv, bt709, progressive), 1920x1080 [SAR 1:1 DAR 16:9], 23.98 fps, 23.98 tbr, 1k tbn (default)
      Metadata:
        HANDLER_NAME    : VideoHandler
        VENDOR_ID       : [0][0][0][0]
        ENCODER         : Lavc61.19.100 libx265
        BPS             : 1703869
        DURATION        : 00:23:22.233708333
        NUMBER_OF_FRAMES: 33620
        NUMBER_OF_BYTES : 298652787
        _STATISTICS_WRITING_APP: mkvpropedit v66.0.0 ('Josie') 64-bit
        _STATISTICS_WRITING_DATE_UTC: 2025-05-29 11:39:31
        _STATISTICS_TAGS: BPS DURATION NUMBER_OF_FRAMES NUMBER_OF_BYTES
  Stream #0:1(eng): Audio: aac (LC), 48000 Hz, stereo, fltp (default)
      Metadata:
        HANDLER_NAME    : SoundHandler
        VENDOR_ID       : [0][0][0][0]
        ENCODER         : Lavc61.19.100 aac
        BPS             : 193319
        DURATION        : 00:23:22.264000000
        NUMBER_OF_FRAMES: 65732
        NUMBER_OF_BYTES : 33885561
        _STATISTICS_WRITING_APP: mkvpropedit v66.0.0 ('Josie') 64-bit
        _STATISTICS_WRITING_DATE_UTC: 2025-05-29 11:39:31
        _STATISTICS_TAGS: BPS DURATION NUMBER_OF_FRAMES NUMBER_OF_BYTES
Input #1, mov,mp4,m4a,3gp,3g2,mj2, from 'G:\Аниме\Онгоинги\!_36_Осень_2024\JamClub\Ты - горничная\JamClub_Kimi_wa_Meido_sama_12_1080p.mp4':
  Metadata:
    major_brand     : isom
    minor_version   : 512
    compatible_brands: isomiso2avc1mp41
    encoder         : Lavf60.16.100
  Duration: 00:23:22.28, start: 0.000000, bitrate: 4027 kb/s
  Stream #1:0[0x1](und): Video: h264 (High) (avc1 / 0x31637661), yuv420p(progressive), 1920x1080 [SAR 1:1 DAR 16:9], 3829 kb/s, 23.98 fps, 23.98 tbr, 90k tbn (default)
      Metadata:
        handler_name    : VideoHandler
        vendor_id       : [0][0][0][0]
  Stream #1:1[0x2](eng): Audio: aac (LC) (mp4a / 0x6134706D), 48000 Hz, stereo, fltp, 191 kb/s (default)
      Metadata:
        handler_name    : SoundHandler
        vendor_id       : [0][0][0][0]
Stream mapping:
  Stream #0:0 (hevc) -> settb:default
  Stream #1:0 (h264) -> settb:default
  ssim:default -> Stream #0:0 (wrapped_avframe)
  Stream #0:1 -> #0:1 (aac (native) -> pcm_s16le (native))
Output #0, null, to 'pipe:':
  Metadata:
    COMPATIBLE_BRANDS: isomiso2avc1mp41
    MAJOR_BRAND     : isom
    MINOR_VERSION   : 512
    encoder         : Lavf61.7.100
  Stream #0:0: Video: wrapped_avframe, yuv420p10le(tv, bt709, progressive), 1920x1080 [SAR 1:1 DAR 16:9], q=2-31, 200 kb/s, 23.98 fps, 23.98 tbn
      Metadata:
        encoder         : Lavc61.19.100 wrapped_avframe
  Stream #0:1(eng): Audio: pcm_s16le, 48000 Hz, stereo, s16, 1536 kb/s (default)
      Metadata:
        HANDLER_NAME    : SoundHandler
        VENDOR_ID       : [0][0][0][0]
        _STATISTICS_TAGS: BPS DURATION NUMBER_OF_FRAMES NUMBER_OF_BYTES
        BPS             : 193319
        DURATION        : 00:23:22.264000000
        NUMBER_OF_FRAMES: 65732
        NUMBER_OF_BYTES : 33885561
        _STATISTICS_WRITING_APP: mkvpropedit v66.0.0 ('Josie') 64-bit
        _STATISTICS_WRITING_DATE_UTC: 2025-05-29 11:39:31
        encoder         : Lavc61.19.100 pcm_s16le
frame=  110 fps=0.0 q=-0.0 size=N/A time=00:00:04.58 bitrate=N/A speed=8.95x    frame=  269 fps=263 q=-0.0 size=N/A time=00:00:11.21 bitrate=N/A speed=  11x    frame=  467 fps=302 q=-0.0 size=N/A time=00:00:19.47 bitrate=N/A speed=12.6x    frame=  667 fps=325 q=-0.0 size=N/A time=00:00:27.81 bitrate=N/A speed=13.6x    frame=  889 fps=345 q=-0.0 size=N/A time=00:00:37.07 bitrate=N/A speed=14.4x    frame= 1071 fps=347 q=-0.0 size=N/A time=00:00:44.66 bitrate=N/A speed=14.5x    frame= 1286 fps=357 q=-0.0 size=N/A time=00:00:53.63 bitrate=N/A speed=14.9x    frame= 1503 fps=365 q=-0.0 size=N/A time=00:01:02.68 bitrate=N/A speed=15.2x    frame= 1744 fps=376 q=-0.0 size=N/A time=00:01:12.73 bitrate=N/A speed=15.7x    frame= 1950 fps=379 q=-0.0 size=N/A time=00:01:21.33 bitrate=N/A speed=15.8x    frame= 2161 fps=381 q=-0.0 size=N/A time=00:01:30.13 bitrate=N/A speed=15.9x    frame= 2423 fps=392 q=-0.0 size=N/A time=00:01:41.05 bitrate=N/A speed=16.3x    frame= 2652 fps=396 q=-0.0 size=N/A time=00:01:50.61 bitrate=N/A speed=16.5x    frame= 2865 fps=397 q=-0.0 size=N/A time=00:01:59.49 bitrate=N/A speed=16.6x    frame= 3075 fps=398 q=-0.0 size=N/A time=00:02:08.25 bitrate=N/A speed=16.6x    frame= 3262 fps=396 q=-0.0 size=N/A time=00:02:16.05 bitrate=N/A speed=16.5x    frame= 3393 fps=387 q=-0.0 size=N/A time=00:02:21.51 bitrate=N/A speed=16.1x    frame= 3493 fps=376 q=-0.0 size=N/A time=00:02:25.68 bitrate=N/A speed=15.7x    frame= 3622 fps=369 q=-0.0 size=N/A time=00:02:31.06 bitrate=N/A speed=15.4x    frame= 3746 fps=363 q=-0.0 size=N/A time=00:02:36.23 bitrate=N/A speed=15.1x    frame= 3866 fps=357 q=-0.0 size=N/A time=00:02:41.24 bitrate=N/A speed=14.9x    frame= 4065 fps=358 q=-0.0 size=N/A time=00:02:49.54 bitrate=N/A speed=14.9x    frame= 4204 fps=354 q=-0.0 size=N/A time=00:02:55.34 bitrate=N/A speed=14.8x    frame= 4437 fps=358 q=-0.0 size=N/A time=00:03:05.05 bitrate=N/A speed=14.9x    frame= 4613 fps=357 q=-0.0 size=N/A time=00:03:12.40 bitrate=N/A speed=14.9x    frame= 4844 fps=361 q=-0.0 size=N/A time=00:03:22.03 bitrate=N/A speed=15.1x    frame= 5080 fps=365 q=-0.0 size=N/A time=00:03:31.87 bitrate=N/A speed=15.2x    frame= 5325 fps=368 q=-0.0 size=N/A time=00:03:42.09 bitrate=N/A speed=15.4x    frame= 5541 fps=370 q=-0.0 size=N/A time=00:03:51.10 bitrate=N/A speed=15.4x    frame= 5808 fps=375 q=-0.0 size=N/A time=00:04:02.24 bitrate=N/A speed=15.6x    frame= 6007 fps=376 q=-0.0 size=N/A time=00:04:10.54 bitrate=N/A speed=15.7x    frame= 6222 fps=377 q=-0.0 size=N/A time=00:04:19.50 bitrate=N/A speed=15.7x    frame= 6467 fps=380 q=-0.0 size=N/A time=00:04:29.72 bitrate=N/A speed=15.8x    frame= 6722 fps=383 q=-0.0 size=N/A time=00:04:40.36 bitrate=N/A speed=  16x    frame= 6957 fps=385 q=-0.0 size=N/A time=00:04:50.16 bitrate=N/A speed=16.1x    frame= 7225 fps=389 q=-0.0 size=N/A time=00:05:01.34 bitrate=N/A speed=16.2x    frame= 7496 fps=393 q=-0.0 size=N/A time=00:05:12.64 bitrate=N/A speed=16.4x    frame= 7738 fps=395 q=-0.0 size=N/A time=00:05:22.73 bitrate=N/A speed=16.5x    frame= 8004 fps=398 q=-0.0 size=N/A time=00:05:33.83 bitrate=N/A speed=16.6x    frame= 8258 fps=400 q=-0.0 size=N/A time=00:05:44.42 bitrate=N/A speed=16.7x    frame= 8508 fps=402 q=-0.0 size=N/A time=00:05:54.85 bitrate=N/A speed=16.8x    frame= 8721 fps=403 q=-0.0 size=N/A time=00:06:03.73 bitrate=N/A speed=16.8x    frame= 8949 fps=403 q=-0.0 size=N/A time=00:06:13.24 bitrate=N/A speed=16.8x    frame= 9172 fps=404 q=-0.0 size=N/A time=00:06:22.54 bitrate=N/A speed=16.9x    frame= 9432 fps=406 q=-0.0 size=N/A time=00:06:33.39 bitrate=N/A speed=16.9x    frame= 9694 fps=409 q=-0.0 size=N/A time=00:06:44.32 bitrate=N/A speed=  17x    frame= 9955 fps=410 q=-0.0 size=N/A time=00:06:55.20 bitrate=N/A speed=17.1x    frame=10193 fps=412 q=-0.0 size=N/A time=00:07:05.13 bitrate=N/A speed=17.2x    frame=10457 fps=414 q=-0.0 size=N/A time=00:07:16.14 bitrate=N/A speed=17.3x    frame=10722 fps=416 q=-0.0 size=N/A time=00:07:27.19 bitrate=N/A speed=17.3x    frame=11001 fps=418 q=-0.0 size=N/A time=00:07:38.83 bitrate=N/A speed=17.4x    frame=11262 fps=420 q=-0.0 size=N/A time=00:07:49.71 bitrate=N/A speed=17.5x    frame=11533 fps=422 q=-0.0 size=N/A time=00:08:01.02 bitrate=N/A speed=17.6x    frame=11793 fps=423 q=-0.0 size=N/A time=00:08:11.86 bitrate=N/A speed=17.7x    frame=12053 fps=425 q=-0.0 size=N/A time=00:08:22.71 bitrate=N/A speed=17.7x    frame=12292 fps=426 q=-0.0 size=N/A time=00:08:32.67 bitrate=N/A speed=17.8x    frame=12579 fps=428 q=-0.0 size=N/A time=00:08:44.64 bitrate=N/A speed=17.8x    frame=12856 fps=430 q=-0.0 size=N/A time=00:08:56.20 bitrate=N/A speed=17.9x    frame=13123 fps=431 q=-0.0 size=N/A time=00:09:07.33 bitrate=N/A speed=  18x    frame=13369 fps=432 q=-0.0 size=N/A time=00:09:17.59 bitrate=N/A speed=  18x    frame=13606 fps=433 q=-0.0 size=N/A time=00:09:27.48 bitrate=N/A speed=  18x    frame=13853 fps=433 q=-0.0 size=N/A time=00:09:37.78 bitrate=N/A speed=18.1x    frame=14110 fps=434 q=-0.0 size=N/A time=00:09:48.50 bitrate=N/A speed=18.1x    frame=14379 fps=436 q=-0.0 size=N/A time=00:09:59.72 bitrate=N/A speed=18.2x    frame=14672 fps=438 q=-0.0 size=N/A time=00:10:11.94 bitrate=N/A speed=18.2x    frame=14932 fps=439 q=-0.0 size=N/A time=00:10:22.78 bitrate=N/A speed=18.3x    frame=15201 fps=440 q=-0.0 size=N/A time=00:10:34.00 bitrate=N/A speed=18.3x    frame=15441 fps=440 q=-0.0 size=N/A time=00:10:44.01 bitrate=N/A speed=18.4x    frame=15667 fps=440 q=-0.0 size=N/A time=00:10:53.44 bitrate=N/A speed=18.4x    frame=15892 fps=440 q=-0.0 size=N/A time=00:11:02.82 bitrate=N/A speed=18.4x    frame=16178 fps=442 q=-0.0 size=N/A time=00:11:14.75 bitrate=N/A speed=18.4x    frame=16442 fps=443 q=-0.0 size=N/A time=00:11:25.76 bitrate=N/A speed=18.5x    frame=16676 fps=443 q=-0.0 size=N/A time=00:11:35.52 bitrate=N/A speed=18.5x    frame=16904 fps=443 q=-0.0 size=N/A time=00:11:45.03 bitrate=N/A speed=18.5x    frame=17152 fps=443 q=-0.0 size=N/A time=00:11:55.38 bitrate=N/A speed=18.5x    frame=17406 fps=444 q=-0.0 size=N/A time=00:12:05.97 bitrate=N/A speed=18.5x    frame=17636 fps=444 q=-0.0 size=N/A time=00:12:15.56 bitrate=N/A speed=18.5x    frame=17890 fps=445 q=-0.0 size=N/A time=00:12:26.16 bitrate=N/A speed=18.5x    frame=18126 fps=445 q=-0.0 size=N/A time=00:12:36.00 bitrate=N/A speed=18.6x    frame=18403 fps=446 q=-0.0 size=N/A time=00:12:47.55 bitrate=N/A speed=18.6x    frame=18652 fps=446 q=-0.0 size=N/A time=00:12:57.94 bitrate=N/A speed=18.6x    frame=18917 fps=447 q=-0.0 size=N/A time=00:13:08.99 bitrate=N/A speed=18.7x    frame=19165 fps=448 q=-0.0 size=N/A time=00:13:19.34 bitrate=N/A speed=18.7x    frame=19427 fps=448 q=-0.0 size=N/A time=00:13:30.26 bitrate=N/A speed=18.7x    frame=19698 fps=449 q=-0.0 size=N/A time=00:13:41.57 bitrate=N/A speed=18.7x    frame=19962 fps=450 q=-0.0 size=N/A time=00:13:52.58 bitrate=N/A speed=18.8x    frame=20243 fps=451 q=-0.0 size=N/A time=00:14:04.30 bitrate=N/A speed=18.8x    frame=20496 fps=452 q=-0.0 size=N/A time=00:14:14.85 bitrate=N/A speed=18.8x    frame=20758 fps=452 q=-0.0 size=N/A time=00:14:25.78 bitrate=N/A speed=18.9x    frame=21013 fps=453 q=-0.0 size=N/A time=00:14:36.41 bitrate=N/A speed=18.9x    frame=21270 fps=453 q=-0.0 size=N/A time=00:14:47.13 bitrate=N/A speed=18.9x    frame=21548 fps=454 q=-0.0 size=N/A time=00:14:58.73 bitrate=N/A speed=18.9x    frame=21826 fps=455 q=-0.0 size=N/A time=00:15:10.32 bitrate=N/A speed=  19x    frame=22068 fps=455 q=-0.0 size=N/A time=00:15:20.41 bitrate=N/A speed=  19x    frame=22306 fps=455 q=-0.0 size=N/A time=00:15:30.34 bitrate=N/A speed=  19x    frame=22579 fps=456 q=-0.0 size=N/A time=00:15:41.73 bitrate=N/A speed=  19x    frame=22825 fps=456 q=-0.0 size=N/A time=00:15:51.99 bitrate=N/A speed=  19x    frame=23061 fps=456 q=-0.0 size=N/A time=00:16:01.83 bitrate=N/A speed=  19x    frame=23303 fps=456 q=-0.0 size=N/A time=00:16:11.92 bitrate=N/A speed=  19x    frame=23560 fps=457 q=-0.0 size=N/A time=00:16:22.64 bitrate=N/A speed=19.1x    frame=23819 fps=457 q=-0.0 size=N/A time=00:16:33.45 bitrate=N/A speed=19.1x    frame=24083 fps=458 q=-0.0 size=N/A time=00:16:44.46 bitrate=N/A speed=19.1x    frame=24353 fps=458 q=-0.0 size=N/A time=00:16:55.72 bitrate=N/A speed=19.1x    frame=24598 fps=459 q=-0.0 size=N/A time=00:17:05.94 bitrate=N/A speed=19.1x    frame=24866 fps=459 q=-0.0 size=N/A time=00:17:17.11 bitrate=N/A speed=19.2x    frame=25124 fps=460 q=-0.0 size=N/A time=00:17:27.88 bitrate=N/A speed=19.2x    frame=25391 fps=460 q=-0.0 size=N/A time=00:17:39.01 bitrate=N/A speed=19.2x    frame=25654 fps=461 q=-0.0 size=N/A time=00:17:49.98 bitrate=N/A speed=19.2x    frame=25914 fps=461 q=-0.0 size=N/A time=00:18:00.82 bitrate=N/A speed=19.2x    frame=26191 fps=462 q=-0.0 size=N/A time=00:18:12.38 bitrate=N/A speed=19.3x    frame=26434 fps=462 q=-0.0 size=N/A time=00:18:22.51 bitrate=N/A speed=19.3x    frame=26696 fps=462 q=-0.0 size=N/A time=00:18:33.44 bitrate=N/A speed=19.3x    frame=26954 fps=462 q=-0.0 size=N/A time=00:18:44.20 bitrate=N/A speed=19.3x    frame=27211 fps=463 q=-0.0 size=N/A time=00:18:54.92 bitrate=N/A speed=19.3x    frame=27466 fps=463 q=-0.0 size=N/A time=00:19:05.56 bitrate=N/A speed=19.3x    frame=27731 fps=464 q=-0.0 size=N/A time=00:19:16.61 bitrate=N/A speed=19.3x    frame=28000 fps=464 q=-0.0 size=N/A time=00:19:27.83 bitrate=N/A speed=19.4x    frame=28283 fps=465 q=-0.0 size=N/A time=00:19:39.63 bitrate=N/A speed=19.4x    frame=28552 fps=465 q=-0.0 size=N/A time=00:19:50.85 bitrate=N/A speed=19.4x    frame=28831 fps=466 q=-0.0 size=N/A time=00:20:02.49 bitrate=N/A speed=19.4x    frame=29093 fps=466 q=-0.0 size=N/A time=00:20:13.42 bitrate=N/A speed=19.4x    frame=29364 fps=467 q=-0.0 size=N/A time=00:20:24.72 bitrate=N/A speed=19.5x    frame=29645 fps=467 q=-0.0 size=N/A time=00:20:36.44 bitrate=N/A speed=19.5x    frame=29919 fps=468 q=-0.0 size=N/A time=00:20:47.87 bitrate=N/A speed=19.5x    frame=30178 fps=468 q=-0.0 size=N/A time=00:20:58.67 bitrate=N/A speed=19.5x    frame=30421 fps=468 q=-0.0 size=N/A time=00:21:08.80 bitrate=N/A speed=19.5x    frame=30700 fps=469 q=-0.0 size=N/A time=00:21:20.44 bitrate=N/A speed=19.5x    frame=30960 fps=469 q=-0.0 size=N/A time=00:21:31.29 bitrate=N/A speed=19.6x    frame=31231 fps=469 q=-0.0 size=N/A time=00:21:42.59 bitrate=N/A speed=19.6x    frame=31471 fps=469 q=-0.0 size=N/A time=00:21:52.60 bitrate=N/A speed=19.6x    frame=31569 fps=467 q=-0.0 size=N/A time=00:21:56.69 bitrate=N/A speed=19.5x    frame=31668 fps=465 q=-0.0 size=N/A time=00:22:00.81 bitrate=N/A speed=19.4x    frame=31780 fps=463 q=-0.0 size=N/A time=00:22:05.49 bitrate=N/A speed=19.3x    frame=31931 fps=462 q=-0.0 size=N/A time=00:22:11.78 bitrate=N/A speed=19.3x    frame=32080 fps=461 q=-0.0 size=N/A time=00:22:18.00 bitrate=N/A speed=19.2x    frame=32221 fps=459 q=-0.0 size=N/A time=00:22:23.88 bitrate=N/A speed=19.2x    frame=32368 fps=458 q=-0.0 size=N/A time=00:22:30.01 bitrate=N/A speed=19.1x    frame=32466 fps=456 q=-0.0 size=N/A time=00:22:34.10 bitrate=N/A speed=  19x    frame=32573 fps=454 q=-0.0 size=N/A time=00:22:38.56 bitrate=N/A speed=18.9x    frame=32726 fps=453 q=-0.0 size=N/A time=00:22:44.94 bitrate=N/A speed=18.9x    frame=32873 fps=452 q=-0.0 size=N/A time=00:22:51.07 bitrate=N/A speed=18.9x    frame=33028 fps=451 q=-0.0 size=N/A time=00:22:57.54 bitrate=N/A speed=18.8x    frame=33149 fps=449 q=-0.0 size=N/A time=00:23:02.58 bitrate=N/A speed=18.7x    frame=33300 fps=448 q=-0.0 size=N/A time=00:23:08.88 bitrate=N/A speed=18.7x    frame=33396 fps=447 q=-0.0 size=N/A time=00:23:12.89 bitrate=N/A speed=18.6x    frame=33503 fps=445 q=-0.0 size=N/A time=00:23:17.35 bitrate=N/A speed=18.6x    frame=33605 fps=443 q=-0.0 size=N/A time=00:23:21.60 bitrate=N/A speed=18.5x    [Parsed_ssim_10 @ 000002edc1655880] SSIM Y:0.994202 (22.367241) U:0.995567 (23.533419) V:0.995634 (23.599625) All:0.994668 (22.731369)
[out#0/null @ 000002edb58a4540] video:14446KiB audio:262928KiB subtitle:0KiB other streams:0KiB global headers:0KiB muxing overhead: unknown
frame=33620 fps=443 q=-0.0 Lsize=N/A time=00:23:22.23 bitrate=N/A speed=18.5x    
